<svg width="22" height="23" viewBox="0 0 22 23" fill="none" xmlns="http://www.w3.org/2000/svg">
<path d="M1.88104 7.33138C1.91728 6.75164 2.39803 6.29999 2.9789 6.29999L19.0211 6.29999C19.602 6.29999 20.0827 6.75164 20.119 7.33138L20.8362 18.8066C20.9477 20.5913 19.5303 22.1 17.7422 22.1H4.2578C2.46966 22.1 1.0523 20.5913 1.16384 18.8066L1.88104 7.33138Z" stroke="black" stroke-width="1.8"/>
<path d="M14.3002 9.90002C14.3002 11.7226 12.8227 13.2 11.0002 13.2C9.17766 13.2 7.7002 11.7226 7.7002 9.90002" stroke="black" stroke-width="1.8" stroke-linecap="round"/>
<path d="M14.3002 5.95001V4.30001C14.3002 2.47747 12.8227 1.00001 11.0002 1.00001C9.17766 1.00001 7.7002 2.47747 7.7002 4.30001V5.95001" stroke="black" stroke-width="1.8" stroke-linecap="round"/>
</svg>
